<?xml version="1.0" encoding="UTF-8" standalone="no"?>
<!DOCTYPE svg PUBLIC "-//W3C//DTD SVG 1.1//EN" "http://www.w3.org/Graphics/SVG/1.1/DTD/svg11.dtd">
<svg version="1.1" xmlns="http://www.w3.org/2000/svg" xmlns:xlink="http://www.w3.org/1999/xlink" preserveAspectRatio="xMidYMid meet" viewBox="0 0 600 600" width="600" height="600"><defs><path d="M308.56 196.86C314.08 196.86 318.56 201.34 318.56 206.86C318.56 249.85 318.56 368.82 318.56 411.81C318.56 417.33 314.08 421.81 308.56 421.81C287.93 421.81 236.06 421.81 215.44 421.81C209.91 421.81 205.44 417.33 205.44 411.81C205.44 368.82 205.44 249.85 205.44 206.86C205.44 201.34 209.91 196.86 215.44 196.86C236.06 196.86 287.93 196.86 308.56 196.86Z" id="b1jtbrLzsG"></path><path d="M399.7 92.79C405.22 92.79 409.7 97.27 409.7 102.79C409.7 123.42 409.7 175.29 409.7 195.91C409.7 201.44 405.22 205.91 399.7 205.91C347.46 205.91 200.77 205.91 148.54 205.91C143.01 205.91 138.54 201.44 138.54 195.91C138.54 175.29 138.54 123.42 138.54 102.79C138.54 97.27 143.01 92.79 148.54 92.79C200.77 92.79 347.46 92.79 399.7 92.79Z" id="cyMsMmLHC"></path><clipPath id="clipa1mRxkapId"><use xlink:href="#cyMsMmLHC" opacity="1"></use></clipPath><path d="M205.44 149.35C205.44 180.57 180.09 205.91 148.88 205.91C117.66 205.91 92.32 180.57 92.32 149.35C92.32 118.14 117.66 92.79 148.88 92.79C180.09 92.79 205.44 118.14 205.44 149.35Z" id="e1nm1LBrqL"></path><clipPath id="clipb8u3pnuJ8"><use xlink:href="#e1nm1LBrqL" opacity="1"></use></clipPath><path d="M484.03 326.79C484.03 379.23 442.61 421.81 391.6 421.81C340.58 421.81 299.16 379.23 299.16 326.79C299.16 274.34 340.58 231.77 391.6 231.77C442.61 231.77 484.03 274.34 484.03 326.79Z" id="d1m1Q5G3Yh"></path><mask id="maskaIDO3ymke" x="285.16" y="217.77" width="212.87" height="218.04" maskUnits="userSpaceOnUse"><rect x="285.16" y="217.77" width="212.87" height="218.04" fill="white"></rect><use xlink:href="#d1m1Q5G3Yh" opacity="1" fill="black"></use></mask><clipPath id="clipa1Jp3uxOeo"><use xlink:href="#d1m1Q5G3Yh" opacity="1"></use></clipPath><path d="M468.52 425.04C468.52 489.97 443.17 542.68 411.96 542.68C380.74 542.68 355.4 489.97 355.4 425.04C355.4 360.11 380.74 307.4 411.96 307.4C443.17 307.4 468.52 360.11 468.52 425.04Z" id="asHcblLE3"></path><clipPath id="clipaID9YCzUM"><use xlink:href="#asHcblLE3" opacity="1"></use></clipPath><path d="M354.75 307.4L370.27 307.4L370.27 542.68L354.75 542.68L354.75 307.4Z" id="gUACknqII"></path><path d="M368.74 314.51L411.96 314.51L411.96 535.57L368.74 535.57L368.74 314.51Z" id="a4lAZAcKFt"></path><path d="M355.4 307.4L413.99 307.4L413.99 314.51L355.4 314.51L355.4 307.4Z" id="axD1MpDUk"></path><path d="M355.4 535.57L411.96 535.57L411.96 542.68L355.4 542.68L355.4 535.57Z" id="a7ElcLWv67"></path><path d="M547.68 486.12C547.68 519.83 522.34 547.21 491.12 547.21C459.91 547.21 434.56 519.83 434.56 486.12C434.56 452.41 459.91 425.04 491.12 425.04C522.34 425.04 547.68 452.41 547.68 486.12Z" id="a7MYbDOm1"></path><mask id="maska1AroVkueY" x="420.56" y="411.04" width="141.12" height="150.17" maskUnits="userSpaceOnUse"><rect x="420.56" y="411.04" width="141.12" height="150.17" fill="white"></rect><use xlink:href="#a7MYbDOm1" opacity="1" fill="black"></use></mask><clipPath id="clipc3yyKyPwx"><use xlink:href="#a7MYbDOm1" opacity="1"></use></clipPath></defs><g><g><g><use xlink:href="#b1jtbrLzsG" opacity="1" fill="#ffffff" fill-opacity="1"></use></g><g><use xlink:href="#cyMsMmLHC" opacity="1" fill="#bb2434" fill-opacity="1"></use><g clip-path="url(#clipa1mRxkapId)"><use xlink:href="#cyMsMmLHC" opacity="1" fill-opacity="0" stroke="#ffffff" stroke-width="14" stroke-opacity="1"></use></g></g><g><use xlink:href="#e1nm1LBrqL" opacity="1" fill="#bb2434" fill-opacity="1"></use><g><use xlink:href="#e1nm1LBrqL" opacity="1" fill-opacity="0" stroke="#bb2434" stroke-width="7" stroke-opacity="1"></use></g><g clip-path="url(#clipb8u3pnuJ8)"><use xlink:href="#e1nm1LBrqL" opacity="1" fill-opacity="0" stroke="#ffffff" stroke-width="14" stroke-opacity="1"></use></g></g><g><use xlink:href="#d1m1Q5G3Yh" opacity="1" fill="#bb2434" fill-opacity="1"></use><g mask="url(#maskaIDO3ymke)"><use xlink:href="#d1m1Q5G3Yh" opacity="1" fill-opacity="0" stroke="#bb2434" stroke-width="14" stroke-opacity="1"></use></g><g clip-path="url(#clipa1Jp3uxOeo)"><use xlink:href="#d1m1Q5G3Yh" opacity="1" fill-opacity="0" stroke="#f5f5f5" stroke-width="14" stroke-opacity="1"></use></g></g><g><use xlink:href="#asHcblLE3" opacity="1" fill="#bb2434" fill-opacity="1"></use><g clip-path="url(#clipaID9YCzUM)"><use xlink:href="#asHcblLE3" opacity="1" fill-opacity="0" stroke="#ffffff" stroke-width="14" stroke-opacity="1"></use></g></g><g><use xlink:href="#gUACknqII" opacity="1" fill="#ffffff" fill-opacity="1"></use></g><g><use xlink:href="#a4lAZAcKFt" opacity="1" fill="#bb2434" fill-opacity="1"></use></g><g><use xlink:href="#axD1MpDUk" opacity="1" fill="#ffffff" fill-opacity="1"></use></g><g><use xlink:href="#a7ElcLWv67" opacity="1" fill="#ffffff" fill-opacity="1"></use></g><g><use xlink:href="#a7MYbDOm1" opacity="1" fill="#bb2434" fill-opacity="1"></use><g mask="url(#maska1AroVkueY)"><use xlink:href="#a7MYbDOm1" opacity="1" fill-opacity="0" stroke="#bb2434" stroke-width="14" stroke-opacity="1"></use></g><g clip-path="url(#clipc3yyKyPwx)"><use xlink:href="#a7MYbDOm1" opacity="1" fill-opacity="0" stroke="#f5f5f5" stroke-width="14" stroke-opacity="1"></use></g></g></g></g></svg>